# xmcd CD database file
#
# Track frame offsets:
#	150
#	19091
#	41461
#	62604
#	83823
#	105578
#	124190
#	141537
#
# Disc length: 2085 seconds
#
# Revision: 0
# Processed by: cddbd v1.5.2PL0 Copyright (c) Steve Scherf et al.
# Submitted via: CDex 1.70beta2
#
DISCID=67082308
DTITLE=Des Fourmis Dans Les Mains - Route 595
DYEAR=2007
DGENRE=Jazz
TTITLE0=L'animal
TTITLE1=La Mer
TTITLE2=La Vente
TTITLE3=Le Parc Maréchal
TTITLE4=La Route
TTITLE5=La Tasse De Farraille
TTITLE6=L'odeur
TTITLE7=Les Mignonettes
EXTD=YEAR: 2007
EXTT0=
EXTT1=
EXTT2=
EXTT3=
EXTT4=
EXTT5=
EXTT6=
EXTT7=
PLAYORDER=
